<svg id="Calque_1" data-name="Calque 1" xmlns="http://www.w3.org/2000/svg" viewBox="0 0 242.65 152.79"><defs><style>.cls-1{fill:#1d1d1b;}.cls-2{fill:#292929;}.cls-3{fill:#474747;opacity:0.69;}.cls-4,.cls-5{fill:#2d2e2f;}.cls-4{opacity:0.5;}.cls-6,.cls-7{font-size:12px;fill:#fff;}.cls-6{font-family:Montserrat-Black, Montserrat;font-weight:800;letter-spacing:-0.05em;}.cls-7{font-family:Montserrat-Regular, Montserrat;letter-spacing:-0.07em;}.cls-8{letter-spacing:-0.06em;}.cls-9{letter-spacing:-0.05em;}.cls-10{fill:#666766;}</style></defs><title>CARTE NFC</title><rect class="cls-1" x="-6.96" y="-3.25" width="252.57" height="159.04"/><polygon class="cls-2" points="112.32 -3.25 194.12 155.79 245.61 155.79 245.61 -3.25 112.32 -3.25"/><path class="cls-3" d="M109.44-3.25s31.78,80.1,136.17,78.36V-3.25Z"/><path class="cls-4" d="M130.51-3.25s-18.73,111.92,87.44,159h27.66v-159Z"/><path class="cls-5" d="M224.53-3.25s-21.41,43.16,21.08,69.93V-3.25Z"/><text class="cls-6" transform="translate(28.14 87.27)">NOM</text><text class="cls-7" transform="translate(28.14 75.31)">P<tspan class="cls-8" x="7.74" y="0">r</tspan><tspan class="cls-9" x="11.8" y="0">enom</tspan></text><path class="cls-10" d="M237.28,138.81a15.12,15.12,0,0,1-3,9.07.8.8,0,0,1-1.26.25.87.87,0,0,1-.1-1.33,12.75,12.75,0,0,0,0-15.44c-.35-.48-.37-.93,0-1.24a.81.81,0,0,1,1.35.09A14.76,14.76,0,0,1,237.1,137C237.2,137.7,237.24,138.38,237.28,138.81Z"/><path class="cls-10" d="M233.94,138.89a12.2,12.2,0,0,1-2.4,7.19c-.43.57-.84.66-1.29.31s-.51-.79-.1-1.36a10,10,0,0,0,2-6.47,10.22,10.22,0,0,0-2-5.54c-.41-.58-.41-.93,0-1.29a.8.8,0,0,1,1.31.12,12.27,12.27,0,0,1,2.36,5.81C233.9,138.11,233.92,138.55,233.94,138.89Z"/><path class="cls-10" d="M230.7,139.23a9.68,9.68,0,0,1-1.61,5.27.86.86,0,0,1-1.17.31.87.87,0,0,1-.35-1.16,17.61,17.61,0,0,0,1.13-2.57,7.18,7.18,0,0,0-1.16-6.11,1.76,1.76,0,0,1-.3-.92.8.8,0,0,1,.72-.69.81.81,0,0,1,.86.41A9.38,9.38,0,0,1,230.7,139.23Z"/><path class="cls-10" d="M227.55,139.44a6.68,6.68,0,0,1-.94,3.34c-.32.54-.78.72-1.23.47a.86.86,0,0,1-.3-1.31,5,5,0,0,0,.69-2.87,5.24,5.24,0,0,0-.93-2.58c-.38-.56-.35-1,.06-1.31a.83.83,0,0,1,1.26.16A6.89,6.89,0,0,1,227.55,139.44Z"/></svg>