<svg id="Calque_1" data-name="Calque 1" xmlns="http://www.w3.org/2000/svg" viewBox="0 0 242.65 152.79"><defs><style>.cls-1{fill:#202020;}.cls-2{fill:#292929;opacity:0.72;}.cls-3{font-size:5px;fill:#fff;font-family:Montserrat-Regular, Montserrat;letter-spacing:-0.06em;}.cls-4{letter-spacing:-0.07em;}.cls-5{letter-spacing:-0.05em;}.cls-6{letter-spacing:-0.06em;}.cls-7{letter-spacing:-0.05em;}.cls-8{letter-spacing:-0.06em;}.cls-9{fill:#666766;}.cls-10{fill:#101112;opacity:0.69;}.cls-11{fill:#4e4d4d;}</style></defs><title>CARTE NFC</title><rect class="cls-1" x="-2.41" y="-2.03" width="247.47" height="155.82"/><polygon class="cls-2" points="114.46 -2.04 194.6 153.79 245.06 153.79 245.06 -2.04 114.46 -2.04"/><text class="cls-3" transform="translate(167.54 142.57)">P<tspan class="cls-4" x="3.28" y="0">ow</tspan><tspan class="cls-5" x="10.16" y="0">e</tspan><tspan x="12.92" y="0">r</tspan><tspan class="cls-5" x="14.62" y="0">ed </tspan><tspan class="cls-4" x="21.58" y="0">b</tspan><tspan class="cls-5" x="24.65" y="0">y Sel</tspan><tspan class="cls-6" x="34.86" y="0">y</tspan><tspan class="cls-7" x="37.29" y="0">s Af</tspan><tspan class="cls-8" x="45.32" y="0">r</tspan><tspan class="cls-5" x="47.03" y="0">ica</tspan></text><path class="cls-9" d="M234.31,140.27a13,13,0,0,1-2.6,7.79.69.69,0,0,1-1.09.21.74.74,0,0,1-.08-1.14,10.95,10.95,0,0,0,0-13.26.78.78,0,0,1,0-1.07.7.7,0,0,1,1.16.08,12.6,12.6,0,0,1,2.48,5.86C234.24,139.32,234.27,139.9,234.31,140.27Z"/><path class="cls-9" d="M231.44,140.34a10.41,10.41,0,0,1-2.07,6.17c-.36.49-.71.57-1.1.27s-.44-.68-.09-1.17a8.61,8.61,0,0,0,1.73-5.55,8.72,8.72,0,0,0-1.71-4.76c-.36-.5-.35-.8,0-1.12a.69.69,0,0,1,1.12.11,10.49,10.49,0,0,1,2,5C231.4,139.66,231.42,140.05,231.44,140.34Z"/><path class="cls-9" d="M228.66,140.62a8.4,8.4,0,0,1-1.39,4.54.74.74,0,0,1-1,.26.75.75,0,0,1-.29-1,15.83,15.83,0,0,0,1-2.2,6.2,6.2,0,0,0-1-5.25,1.46,1.46,0,0,1-.26-.79.68.68,0,0,1,.62-.59.7.7,0,0,1,.74.34A8.16,8.16,0,0,1,228.66,140.62Z"/><path class="cls-9" d="M226,140.81a5.73,5.73,0,0,1-.81,2.87c-.28.46-.67.62-1.06.41a.75.75,0,0,1-.26-1.13,4.28,4.28,0,0,0,.6-2.47,4.39,4.39,0,0,0-.8-2.21c-.32-.49-.3-.84,0-1.13a.72.72,0,0,1,1.09.14A6,6,0,0,1,226,140.81Z"/><circle class="cls-10" cx="125.39" cy="76.39" r="53.23"/><path class="cls-11" d="M137.88,100.9V98.58h-4.72v7h-2.34v-4.65h-2.35v7h-9.39v-2.32h-2.38v-2.32h4.7V100.9l2.36,0v2.33h2.3V100.9h-2.31l0-2.35h2.33V93.83h2.38v4.68h2.34V93.82h2.29V89.17h-4.67V91.5h-2.34V89.18h-2.34V91.5H119.1v2.33h4.67l0,4.74-2.39,0v-2.3h-4.69v4.62h-2.36V89.15h7V86.81h2.34V84.45h2.38v2.3h2.36v-2.3h2.37l0,0v2.32h4.73V84.43h2.34v2.32h2.33V84.43l2.37,0,0,0V86.8h2.37l0,0V98.51h-4.67v2.37h-2.38Zm4.67-11.73h-7v7h7Z"/><path class="cls-11" d="M100.27,84.43H97.92v4.68H95.6V68h2.28V70.3h2.39v2.39H98v7h2.3v-7h2.34V68h14.09c0,1.57,0,3.14,0,4.71l0,0-4.74,0h0V70.37h-2.37v2.32H105V75h-2.33V82.1h-2.37v2.35Z"/><path class="cls-11" d="M95.6,49.2H112V65.59H95.6Zm2.45,13.92H109.5V51.68H98.05Z"/><path class="cls-11" d="M154.3,49.22V65.6H137.92V49.22Zm-2.48,13.92V51.69H140.37V63.14Z"/><path class="cls-11" d="M112,107.92H95.59V91.54H112Zm-13.92-2.48H109.5V94H98.05Z"/><path class="cls-11" d="M152,72.67h2.31v7.06H152v-2.3h-9.42v2.32l0,0h-4.7V77.38h2.35V75h4.65V72.68h-4.65V70.35h2.32V68h2.36V70.3h2.34V68h7V70.3H152v2.39h-4.67V75H152Z"/><path class="cls-11" d="M144.93,105.59h-4.67v-2.33h2.29v-2.35h7V96.24h4.69v11.67H152v-2.32h-4.72v-2.32h-2.37v2.32Z"/><path class="cls-11" d="M152,79.73v2.33h2.32V86.8H152V84.48h-2.31v2.3H152c0,1.57,0,3.15,0,4.72l0,0h-4.69v-4.7h-2.38l0,0V84.43h-2.37l0,0V79.73l0,0H145v2.31h4.69V79.75H152Z"/><path class="cls-11" d="M114.37,89.13h-7V86.78H105l0,0,0-2.37h4.72v2.32H112v-2.3h-2.32l0-2.37,0,0H112V79.73l0,0h2.35v4.66h2.34V82.13H119v4.63h-4.67v2.37Z"/><path class="cls-11" d="M116.72,58.59V56.24h-2.33v-7h2.31V51.5H119V49.22h2.35V51.5h2.34v4.71h-4.64v2.36h-2.38Z"/><path class="cls-11" d="M126.11,58.57v7.07h2.35V68h-7.06V65.64h2.32V60.92h-2.32V58.59h4.7Z"/><path class="cls-11" d="M119,75.07h2.34V72.7h2.38V70.36h2.31V75h-2.29v2.33h-2.35V79.7h-2.38V75.07Z"/><path class="cls-11" d="M130.83,84.45V79.77h2.32V77.4h2.38l0,0V82.1h-2.36v2.33h-2.34Z"/><path class="cls-11" d="M107.3,77.4H112v2.35l0,0h-2.37V82.1l0,0-4.72,0V79.72h2.37V77.38Z"/><path class="cls-11" d="M133.19,56.2v-7h2.29v7Z"/><path class="cls-11" d="M126.12,84.45V82.1H123.8V79.78h4.66v4.65h-2.36Z"/><path class="cls-11" d="M130.79,70.37h2.33V75H128.5V72.71h2.31V70.35Z"/><path class="cls-11" d="M126.12,58.59V53.92h2.34v4.65h-2.36Z"/><path class="cls-11" d="M119.07,65.64v-4.7h2.35v4.68h-2.36Z"/><path class="cls-11" d="M133.16,105.6h4.66v2.31h-4.65V105.6Z"/><path class="cls-11" d="M121.41,68v2.32h-2.34V68h2.35Z"/><path class="cls-11" d="M128.46,68h2.33v2.38l0,0h-2.34V68Z"/><path class="cls-11" d="M137.83,70.3h-2.28V68h2.28Z"/><path class="cls-11" d="M112,72.68V75h-2.33V72.68H112Z"/><path class="cls-11" d="M137.88,75V72.69h2.33V75h-2.33Z"/><path class="cls-11" d="M116.72,75c0-.79,0-1.59,0-2.39l0,0H119v2.38l-2.34,0Z"/><path class="cls-11" d="M102.62,86.78h-2.35V84.43l0,0,2.37,0,0,2.37Z"/><path class="cls-11" d="M135.53,77.4V75h2.33v2.36h-2.35Z"/><path class="cls-11" d="M105,86.78V89.1h-2.33V86.78l0,0H105Z"/><path class="cls-11" d="M116.71,75v2.32H114.4V75h2.32Z"/><path class="cls-11" d="M116.71,58.57v2.32H114.4v-2.3h2.32Z"/><path class="cls-11" d="M128.46,58.59h2.31v2.3h-2.3v-2.3Z"/><path class="cls-11" d="M105,75h2.35V77.4l0,0H105V75Z"/><path class="cls-11" d="M135.49,58.61v2.28H133.2V58.61Z"/><path class="cls-11" d="M152,91.5h2.32v2.3H152V91.48Z"/><path class="cls-11" d="M130.77,51.5H128.5V49.23h2.27Z"/><path class="cls-11" d="M116.74,65.6h-2.35V63.33h2.33v2.29Z"/><path class="cls-11" d="M128.47,65.64V63.33h2.31v2.3h-2.31Z"/><path class="cls-11" d="M133.18,65.58V63.33h2.3v2.25Z"/><path class="cls-11" d="M121.42,100.88h-2.31V98.55h2.31v2.33Z"/><path class="cls-11" d="M137.86,100.88v2.32h-2.3v-2.3h2.32Z"/><path class="cls-11" d="M116.71,105.58v2.32H114.4v-2.3h2.32Z"/><path class="cls-11" d="M119.07,68l-2.39,0h0c0-.79,0-1.58,0-2.37l0,0,2.35,0V68Z"/><path class="cls-11" d="M147.26,105.59v2.31h-2.33v-2.31h2.33Z"/><path class="cls-11" d="M140.23,84.45h-2.37V82.13h2.37Z"/><path class="cls-11" d="M137.9,91.51h2.28v2.3H137.9Z"/><circle class="cls-11" cx="124.94" cy="92.67" r="1.67"/><circle class="cls-11" cx="103.78" cy="83.26" r="1.67"/><path class="cls-11" d="M107.28,53.92v7h-7v-7Z"/><path class="cls-11" d="M149.58,60.91h-7v-7h7Z"/><path class="cls-11" d="M107.27,103.22h-7v-7h7Z"/></svg>